<svg height="96" width="96" xmlns="http://www.w3.org/2000/svg" xmlns:xlink="http://www.w3.org/1999/xlink"><linearGradient id="a"><stop offset="0" stop-color="#fefefe"/><stop offset="1" stop-color="#fefefe" stop-opacity="0"/></linearGradient><linearGradient id="b" gradientUnits="userSpaceOnUse" x1="36.357143" x2="36.357143" xlink:href="#a" y1="6" y2="63.893143"/><filter id="c" color-interpolation-filters="sRGB" height="1.384" width="1.384" x="-.192" y="-.192"><feGaussianBlur stdDeviation="5.28"/></filter><linearGradient id="d" gradientUnits="userSpaceOnUse" x1="48" x2="48" xlink:href="#a" y1="20.220806" y2="138.66119"/><radialGradient id="e" cx="48" cy="90.171875" gradientTransform="matrix(1.1573129 0 0 .99590774 -7.551021 .197132)" gradientUnits="userSpaceOnUse" r="42" xlink:href="#a"/><clipPath id="f"><rect height="84" rx="6" width="84" x="6" y="6"/></clipPath><linearGradient id="g" gradientUnits="userSpaceOnUse" x1="48" x2="48" y1="-6" y2="-90.012283"><stop offset="0" stop-color="#455464"/><stop offset="1" stop-color="#171a25"/></linearGradient><linearGradient id="h" gradientTransform="matrix(1.0058652 0 0 .994169 100 0)" gradientUnits="userSpaceOnUse" x1="45.447727" x2="45.447727" y1="92.539597" y2="7.01654"><stop offset="0"/><stop offset="1" stop-opacity=".588235"/></linearGradient><linearGradient id="i" gradientTransform="matrix(1.0238095 0 0 1.0119048 -1.142857 -98.071429)" gradientUnits="userSpaceOnUse" x1="32.251034" x2="32.251034" xlink:href="#h" y1="6.131708" y2="90.238609"/><linearGradient id="j" gradientTransform="translate(0 -97)" gradientUnits="userSpaceOnUse" x1="32.251034" x2="32.251034" xlink:href="#h" y1="6.131708" y2="90.238609"/><linearGradient id="k" gradientUnits="userSpaceOnUse" x1="58.815382" x2="58.690374" y1="13.454107" y2="81.877548"><stop offset="0" stop-color="#00bdff"/><stop offset="1" stop-color="#006ae2"/></linearGradient><g fill="url(#i)"><path d="m12-95.03125c-5.5110903 0-10.03125 4.52016-10.03125 10.03125v71c0 5.5110902 4.5201598 10.03125 10.03125 10.03125h72c5.51109 0 10.03125-4.5201597 10.03125-10.03125v-71c0-5.51109-4.52016-10.03125-10.03125-10.03125z" opacity=".08" transform="scale(1 -1)"/><path d="m12-94.03125c-4.971633 0-9.03125 4.059617-9.03125 9.03125v71c0 4.9716329 4.0596171 9.03125 9.03125 9.03125h72c4.971633 0 9.03125-4.059617 9.03125-9.03125v-71c0-4.971633-4.059617-9.03125-9.03125-9.03125z" opacity=".1" transform="scale(1 -1)"/><path d="m12-93c-4.4091333 0-8 3.590867-8 8v71c0 4.4091333 3.5908667 8 8 8h72c4.409133 0 8-3.5908667 8-8v-71c0-4.409133-3.590867-8-8-8z" opacity=".2" transform="scale(1 -1)"/><rect height="85" opacity=".3" rx="7" transform="scale(1 -1)" width="86" x="5" y="-92"/></g><rect fill="url(#j)" height="84" opacity=".45" rx="6" transform="scale(1 -1)" width="84" x="6" y="-91"/><rect fill="url(#g)" height="84" rx="6" transform="scale(1 -1)" width="84" x="6" y="-90"/><path d="m12 6c-3.324 0-6 2.676-6 6v2 68 2c0 .334721.04135.6507.09375.96875.0487.295596.09704.596915.1875.875.00988.03038.020892.0636.03125.09375.098865.287771.2348802.547452.375.8125.1445918.273507.3156161.535615.5.78125s.3737765.473472.59375.6875c.439947.428056.94291.814526 1.5 1.09375.278545.139612.5734731.246947.875.34375-.2562018-.100222-.4867109-.236272-.71875-.375-.00741-.0044-.023866.0045-.03125 0-.031933-.0193-.062293-.04251-.09375-.0625-.120395-.0767-.2310226-.163513-.34375-.25-.1061728-.0808-.2132809-.161112-.3125-.25-.1779299-.161433-.3474596-.345388-.5-.53125-.1075789-.130255-.2183939-.265285-.3125-.40625-.025089-.03838-.038446-.08587-.0625-.125-.064763-.103032-.1302275-.204517-.1875-.3125-.1010083-.194706-.2056748-.415701-.28125-.625-.00796-.02181-.023589-.04055-.03125-.0625-.0318251-.09195-.0358045-.186831-.0625-.28125-.0303323-.106618-.0703894-.203031-.09375-.3125-.0728786-.341512-.125-.698205-.125-1.0625v-2-68-2c0-2.781848 2.2181517-5 5-5h2 68 2c2.781848 0 5 2.218152 5 5v2 68 2c0 .364295-.05212.720988-.125 1.0625-.04415.206893-.08838.397658-.15625.59375-.0077.02195-.0233.04069-.03125.0625-.06274.173739-.138383.367449-.21875.53125-.04158.0828-.07904.169954-.125.25-.0546.09721-.126774.18835-.1875.28125-.09411.140965-.204921.275995-.3125.40625-.143174.17445-.303141.346998-.46875.5-.01117.0102-.01998.02115-.03125.03125-.138386.125556-.285091.234436-.4375.34375-.102571.07315-.204318.153364-.3125.21875-.0074.0045-.02384-.0044-.03125 0-.232039.138728-.462548.274778-.71875.375.301527-.0968.596455-.204138.875-.34375.55709-.279224 1.060053-.665694 1.5-1.09375.219973-.214028.409366-.441865.59375-.6875s.355408-.507743.5-.78125c.14012-.265048.276135-.524729.375-.8125.01041-.03078.02133-.06274.03125-.09375.09046-.278085.1388-.579404.1875-.875.0524-.31805.09375-.634029.09375-.96875v-2-68-2c0-3.324-2.676-6-6-6z" fill="url(#b)" opacity=".2"/><path d="m12 90c-3.324 0-6-2.676-6-6v-2-68-2c0-.334721.04135-.6507.09375-.96875.0487-.295596.09704-.596915.1875-.875.00988-.03038.020892-.0636.03125-.09375.098865-.287771.2348802-.547452.375-.8125.1445918-.273507.3156161-.535615.5-.78125s.3737765-.473472.59375-.6875c.439947-.428056.94291-.814526 1.5-1.09375.278545-.139612.5734731-.246947.875-.34375-.2562018.100222-.4867109.236272-.71875.375-.00741.0044-.023866-.0045-.03125 0-.031933.0193-.062293.04251-.09375.0625-.120395.0767-.2310226.163513-.34375.25-.1061728.0808-.2132809.161112-.3125.25-.1779299.161433-.3474596.345388-.5.53125-.1075789.130255-.2183939.265285-.3125.40625-.025089.03838-.038446.08587-.0625.125-.064763.103032-.1302275.204517-.1875.3125-.1010083.194706-.2056748.415701-.28125.625-.00796.02181-.023589.04055-.03125.0625-.0318251.09195-.0358045.186831-.0625.28125-.0303323.106618-.0703894.203031-.09375.3125-.0728786.341512-.125.698205-.125 1.0625v2 68 2c0 2.781848 2.2181517 5 5 5h2 68 2c2.781848 0 5-2.218152 5-5v-2-68-2c0-.364295-.05212-.720988-.125-1.0625-.04415-.206893-.08838-.397658-.15625-.59375-.0077-.02195-.0233-.04069-.03125-.0625-.06274-.173739-.138383-.367449-.21875-.53125-.04158-.0828-.07904-.169954-.125-.25-.0546-.09721-.126774-.18835-.1875-.28125-.09411-.140965-.204921-.275995-.3125-.40625-.143174-.17445-.303141-.346998-.46875-.5-.01117-.0102-.01998-.02115-.03125-.03125-.138386-.125556-.285091-.234436-.4375-.34375-.102571-.07315-.204318-.153364-.3125-.21875-.0074-.0045-.02384.0044-.03125 0-.232039-.138728-.462548-.274778-.71875-.375.301527.0968.596455.204138.875.34375.55709.279224 1.060053.665694 1.5 1.09375.219973.214028.409366.441865.59375.6875s.355408.507743.5.78125c.14012.265048.276135.524729.375.8125.01041.03078.02133.06274.03125.09375.09046.278085.1388.579404.1875.875.0524.31805.09375.634029.09375.96875v2 68 2c0 3.324-2.676 6-6 6z" fill="url(#e)" opacity=".15"/><path d="m49.742781 13.261719c-7.434148.09414-14.6909 1.045937-19.589844 2.658203-5.064091 1.683708-9.07095 7.081955-10.875 13.273437-.618394 2.417899-.710937 4.102677-.710937 12.980469 0 11.393994.346126 15.936004 1.669921 21.867188 1.792743 8.032277 5.58537 13.601953 11.011719 16.173828 3.140384 1.488425 8.286706 2.716044 13.03125 3.109375 5.954513.493636 11.977659-.114017 16.957031-1.712891l2.021485-.65039.107422-2.851563c.06343-1.68326-.03982-2.849609-.251954-2.849609-.197597 0-1.486389.231744-2.865234.515625-6.081873 1.252181-14.23261 1.006373-17.71875-.535157-3.243314-1.434152-5.104078-4.0212-5.474609-7.611328-.192084-1.861141-.154724-2.002162.490234-1.802734.384768.11898 2.355768.504687 4.378906.855469 4.527149.784939 18.268668.887924 22.806641.171875 7.554843-1.192095 13.878644-4.499757 16.675781-8.722657l1.164063-1.757812-.0059-10.328125-.0059-8.640625c-.16127-3.397379-1.733728-5.142578-4.751953-5.142578-3.525523 0-5.292969 2.282184-5.292969 6.792969v9.83789h-7.292969v-9.83789c0-4.510788-1.76549-6.792969-5.291015-6.792969-3.188618 0-4.783203 1.924149-4.783203 5.71289v17.972657h-7.335857v-18.517578c0-3.784563.962858-6.792572 2.898438-9.017579 1.995974-2.225007 4.610634-3.365234 7.855468-3.365234 3.754179 0 6.596814 1.443797 8.476563 4.330078l1.826172 3.0625 1.828125-3.0625c1.879368-2.886281 4.722005-4.330078 8.476562-4.330078.959446 0 1.857527.112509 2.707032.310547-.01911-.14092-.02442-.232416-.04492-.378906.0038-.336692-1.889813-3.2142-3.023438-4.59375-3.592868-4.372326-8.829293-6.046335-21.654297-6.923828-2.43672-.166723-4.936013-.2306-7.414062-.199219zm-13.492188 15.177734a4.1186028 4.1186028 0 0 1 4.119141 4.119141 4.1186028 4.1186028 0 0 1 -4.119141 4.117187 4.1186028 4.1186028 0 0 1 -4.117187-4.117187 4.1186028 4.1186028 0 0 1 4.117187-4.119141z" fill="none" opacity=".12" stroke="#000" stroke-width="2"/><rect height="66" rx="12" style="opacity:.1;stroke:#fefefe;stroke-width:.5;stroke-linecap:round;clip-path:url(#f);fill:url(#d);filter:url(#c)" width="66" x="15" y="15"/><path d="m49.742781 13.261719c-7.434148.09414-14.6909 1.045937-19.589844 2.658203-5.064091 1.683708-9.07095 7.081955-10.875 13.273437-.618394 2.417899-.710937 4.102677-.710937 12.980469 0 11.393994.346126 15.936004 1.669921 21.867188 1.792743 8.032277 5.58537 13.601953 11.011719 16.173828 3.140384 1.488425 8.286706 2.716044 13.03125 3.109375 5.954513.493636 11.977659-.114017 16.957031-1.712891l2.021485-.65039.107422-2.851563c.06343-1.68326-.03982-2.849609-.251954-2.849609-.197597 0-1.486389.231744-2.865234.515625-6.081873 1.252181-14.23261 1.006373-17.71875-.535157-3.243314-1.434152-5.104078-4.0212-5.474609-7.611328-.192084-1.861141-.154724-2.002162.490234-1.802734.384768.11898 2.355768.504687 4.378906.855469 4.527149.784939 18.268668.887924 22.806641.171875 7.554843-1.192095 13.878644-4.499757 16.675781-8.722657l1.164063-1.757812-.0059-10.328125-.0059-8.640625c-.16127-3.397379-1.733728-5.142578-4.751953-5.142578-3.525523 0-5.292969 2.282184-5.292969 6.792969v9.83789h-7.292969v-9.83789c0-4.510788-1.76549-6.792969-5.291015-6.792969-3.188618 0-4.783203 1.924149-4.783203 5.71289v17.972657h-7.335857v-18.517578c0-3.784563.962858-6.792572 2.898438-9.017579 1.995974-2.225007 4.610634-3.365234 7.855468-3.365234 3.754179 0 6.596814 1.443797 8.476563 4.330078l1.826172 3.0625 1.828125-3.0625c1.879368-2.886281 4.722005-4.330078 8.476562-4.330078.959446 0 1.857527.112509 2.707032.310547-.01911-.14092-.02442-.232416-.04492-.378906.0038-.336692-1.889813-3.2142-3.023438-4.59375-3.592868-4.372326-8.829293-6.046335-21.654297-6.923828-2.43672-.166723-4.936013-.2306-7.414062-.199219zm-13.492188 15.177734a4.1186028 4.1186028 0 0 1 4.119141 4.119141 4.1186028 4.1186028 0 0 1 -4.119141 4.117187 4.1186028 4.1186028 0 0 1 -4.117187-4.117187 4.1186028 4.1186028 0 0 1 4.117187-4.119141z" fill="none" opacity=".12" stroke="#000" stroke-width="4"/><path d="m49.742781 13.261719c-7.434148.09414-14.6909 1.045937-19.589844 2.658203-5.064091 1.683708-9.07095 7.081955-10.875 13.273437-.618394 2.417899-.710937 4.102677-.710937 12.980469 0 11.393994.346126 15.936004 1.669921 21.867188 1.792743 8.032277 5.58537 13.601953 11.011719 16.173828 3.140384 1.488425 8.286706 2.716044 13.03125 3.109375 5.954513.493636 11.977659-.114017 16.957031-1.712891l2.021485-.65039.107422-2.851563c.06343-1.68326-.03982-2.849609-.251954-2.849609-.197597 0-1.486389.231744-2.865234.515625-6.081873 1.252181-14.23261 1.006373-17.71875-.535157-3.243314-1.434152-5.104078-4.0212-5.474609-7.611328-.192084-1.861141-.154724-2.002162.490234-1.802734.384768.11898 2.355768.504687 4.378906.855469 4.527149.784939 18.268668.887924 22.806641.171875 7.554843-1.192095 13.878644-4.499757 16.675781-8.722657l1.164063-1.757812-.0059-10.328125-.0059-8.640625c-.16127-3.397379-1.733728-5.142578-4.751953-5.142578-3.525523 0-5.292969 2.282184-5.292969 6.792969v9.83789h-7.292969v-9.83789c0-4.510788-1.76549-6.792969-5.291015-6.792969-3.188618 0-4.783203 1.924149-4.783203 5.71289v17.972657h-7.335857v-18.517578c0-3.784563.962858-6.792572 2.898438-9.017579 1.995974-2.225007 4.610634-3.365234 7.855468-3.365234 3.754179 0 6.596814 1.443797 8.476563 4.330078l1.826172 3.0625 1.828125-3.0625c1.879368-2.886281 4.722005-4.330078 8.476562-4.330078.959446 0 1.857527.112509 2.707032.310547-.01911-.14092-.02442-.232416-.04492-.378906.0038-.336692-1.889813-3.2142-3.023438-4.59375-3.592868-4.372326-8.829293-6.046335-21.654297-6.923828-2.43672-.166723-4.936013-.2306-7.414062-.199219zm-13.492188 15.177734a4.1186028 4.1186028 0 0 1 4.119141 4.119141 4.1186028 4.1186028 0 0 1 -4.119141 4.117187 4.1186028 4.1186028 0 0 1 -4.117187-4.117187 4.1186028 4.1186028 0 0 1 4.117187-4.119141z" fill="url(#k)" stroke-width=".367844"/><path d="m58.563093 25.046875c-3.244834 0-5.859494 1.140227-7.855468 3.365234-1.93558 2.225007-2.898438 5.233016-2.898438 9.017579v18.517578h7.335938v-17.972657c0-3.788741 1.594585-5.71289 4.783203-5.71289 3.525525 0 5.292969 2.282182 5.292969 6.792969v9.83789h7.292968v-9.83789c0-4.510785 1.767446-6.792969 5.292969-6.792969 3.188619 0 4.78125 1.924149 4.78125 5.71289v17.972657h7.337891v-18.517578c0-3.784563-.965189-6.792572-2.900391-9.017579-1.996352-2.225007-4.60906-3.365234-7.853516-3.365234-3.754557 0-6.597194 1.443797-8.476562 4.330078l-1.828125 3.0625-1.828125-3.0625c-1.879749-2.886281-4.722384-4.330078-8.476563-4.330078zm-22.316406 3.392578a4.1186028 4.1186028 0 0 0 -4.11914 4.119141 4.1186028 4.1186028 0 0 0 4.11914 4.117187 4.1186028 4.1186028 0 0 0 4.117188-4.117187 4.1186028 4.1186028 0 0 0 -4.117188-4.119141z" fill="#fff" stroke-width=".303859"/></svg>